<svg xmlns="http://www.w3.org/2000/svg" width="87" height="87" viewBox="0 0 87 87">
  <g id="Staff" transform="translate(8442 -46)">
    <g id="组_9641" data-name="组 9641" transform="translate(-8442 46)">
      <g id="组_9640" data-name="组 9640">
        <g id="组_9599" data-name="组 9599">
          <g id="组_9537" data-name="组 9537">
            <rect id="矩形_19148" data-name="矩形 19148" width="87" height="87" rx="6" fill="#dfefff"/>
          </g>
          <g id="组_9540" data-name="组 9540" transform="translate(14.5 12.687)">
            <path id="路径_9227" data-name="路径 9227" d="M258.213,147.589c.725-.194,1.45-.174,1.659.6a4.409,4.409,0,0,1-.087,2.755c-.271.784-1.407,1.5-2.008,2.175a1.644,1.644,0,0,1-1.29.377,30.164,30.164,0,0,1-2.59,5.266c-2.406,3.786-5.685,6.535-9.634,6.535s-7.227-2.755-9.632-6.535a28.857,28.857,0,0,1-2.59-5.266,1.644,1.644,0,0,1-1.29-.377c-.6-.668-1.74-1.385-2.018-2.175a4.479,4.479,0,0,1-.087-2.755.979.979,0,0,1,1.233-.687,19.163,19.163,0,0,1-.523-7.8c.757-3.48,1.853-4.424,3.832-5.19a11.63,11.63,0,0,1,10.671-5.906c5.016,0,9.789,1.54,12.76,7.465a7.023,7.023,0,0,0,.621.426C259.9,138.072,258.825,144.935,258.213,147.589ZM253.265,138a13.608,13.608,0,0,1-13.6,2,15.209,15.209,0,0,0,5.928,1.414,16.251,16.251,0,0,0,2.59-.1,12.283,12.283,0,0,0,2.308-.494.859.859,0,0,1,.523,1.636,13.671,13.671,0,0,1-2.639.561,18.224,18.224,0,0,1-2.852.106,16.4,16.4,0,0,1-7.373-1.985,7.855,7.855,0,0,1-2.871-2.672,9.425,9.425,0,0,0-2.366,4.289c-.029.348-.039.7-.039,1.045a29.048,29.048,0,0,0,3.812,13.737c2.008,3.136,4.618,5.422,7.586,5.422s5.578-2.285,7.586-5.422c3.135-4.907,5.288-14.481,1.408-19.545ZM220.011,174.27c1.475-2.952,4.947-3.863,9.051-4.966a30.472,30.472,0,0,0,.8,20.03,3.068,3.068,0,1,0,1.969-.929c-2.24-5.722-2.823-13.99-.126-19.807,1.067-.29,3-1.064,3.832-1.385a55.389,55.389,0,0,0,5.752,13.99l1.3-7.61-.747-1.8,2.4-2.008,2.406,2-.747,1.791,1.3,7.6a58.23,58.23,0,0,0,5.8-13.99c1.1.426,3.181,1.172,4.656,1.559a14.517,14.517,0,0,1-.165,6.844,6.525,6.525,0,0,0-6.751,4.976c-1.367,4.618-5.967,11.86.136,13.214a1.086,1.086,0,0,0,.476-2.12c-1.378-.31-1.533-1.414-1.2-2.856.476-2.091,1.989-5.256,2.687-7.628a4.379,4.379,0,1,1,8.547,1.907c-.389,2.465-.4,5.972-.871,8.034-.329,1.443-.941,2.381-2.32,2.072a1.086,1.086,0,0,0-.476,2.12c6.112,1.364,5.075-7.164,5.83-11.89a6.476,6.476,0,0,0-3.915-7.347,17.948,17.948,0,0,0,.389-6.7c3.87,1.074,7.13,2.091,8.507,4.86,3.026,6.06,3.744,20.388,4.55,28.665H215.5c.815-8.684,1.348-22.33,4.511-28.636Z" transform="translate(-215.5 -128.591)" fill="#2988e6"/>
            <path id="路径_9228" data-name="路径 9228" d="M-8389.08,6367l-11.3,3.289c-2.828.821-5.824,4.141-7.049,16.649s-1.369,16.142-1.369,16.142h57.58l-2.111-17.009s-1.025-11.105-3.973-13.863S-8371.67,6367-8371.67,6367s-4.832,13.761-5.459,14.375-1.41-7.685-5.986,0c0,0-.348.942-.512.58S-8389.08,6367-8389.08,6367Z" transform="translate(8409.047 -6328.769)" fill="#2988e6"/>
            <path id="路径_13191" data-name="路径 13191" d="M10.273,64.512a1.508,1.508,0,0,1,1.01.321,1.206,1.206,0,0,1,.378.973v5.748a1.359,1.359,0,0,1-.1.528,1.377,1.377,0,0,1-.285.435,1.36,1.36,0,0,1-.425.3,1.243,1.243,0,0,1-.513.109H1.3a1.259,1.259,0,0,1-.507-.1,1.376,1.376,0,0,1-.414-.274,1.3,1.3,0,0,1-.28-.4,1.162,1.162,0,0,1-.1-.487V65.786a1.272,1.272,0,0,1,.342-.917,1.27,1.27,0,0,1,.963-.357h8.969ZM2.91,66.428a.97.97,0,0,0-.373.072.985.985,0,0,0-.311.2.938.938,0,0,0-.212.311.975.975,0,0,0-.078.388.939.939,0,0,0,.078.383,1.018,1.018,0,0,0,.523.523.914.914,0,0,0,.373.078,1,1,0,0,0,.4-.078.938.938,0,0,0,.311-.212,1.064,1.064,0,0,0,.207-.311,1,1,0,0,0-.2-1.082A.978.978,0,0,0,2.91,66.428Zm1.626,3.583a.95.95,0,0,0-.078-.378.952.952,0,0,0-.518-.518.95.95,0,0,0-.378-.078H2.268a.921.921,0,0,0-.684.285.947.947,0,0,0-.28.689v.973H4.536v-.973Zm4.805,1.025a.4.4,0,0,0,.306-.1.348.348,0,0,0,.1-.249.34.34,0,0,0-.114-.254.446.446,0,0,0-.321-.109H6.224a.41.41,0,0,0-.311.109.356.356,0,0,0-.1.254.339.339,0,0,0,.1.249.407.407,0,0,0,.3.1Zm.01-1.336a.386.386,0,0,0,.3-.1.359.359,0,0,0,.093-.249.386.386,0,0,0-.088-.259.369.369,0,0,0-.3-.1H6.193a.386.386,0,0,0-.3.1.4.4,0,0,0-.005.507.369.369,0,0,0,.3.1Zm.01-1.315a.387.387,0,0,0,.269-.1.324.324,0,0,0,.114-.249.28.28,0,0,0-.114-.233.428.428,0,0,0-.269-.088H7.26A.406.406,0,0,0,7,67.8a.285.285,0,0,0-.109.233A.331.331,0,0,0,7,68.282a.369.369,0,0,0,.264.1Z" transform="translate(38.511 -12.785)" fill="#fff"/>
            <rect id="矩形_20774" data-name="矩形 20774" width="1.781" height="1.781" transform="translate(43.592 50.695)" fill="#fff"/>
          </g>
        </g>
      </g>
      <path id="路径_9531" data-name="路径 9531" d="M-8399.254,61.63a13.653,13.653,0,0,1-8.463,3.813,9.914,9.914,0,0,1-1.79,0,17.66,17.66,0,0,1-9.31-3.575" transform="translate(8452.434 -39.966)" fill="none" stroke="#2988e6" stroke-width="2.1"/>
      <path id="路径_9532" data-name="路径 9532" d="M10.109.92s2.6-1.51.542-.516c-.417-.644,2.666-.065.672-.4L5.309,1.312l-.325.033C1.971,1.788,0,4.92,0,4.92" transform="translate(36.707 21.202) rotate(121)" fill="none" stroke="#2988e6" stroke-width="2"/>
      <path id="路径_9533" data-name="路径 9533" d="M10.573,3.593s2.72,1.356.567.463c-.213.283-1.927-.549-.981-.59.052,0,2.748.8,1.684.952L5.553,3.241l-.34-.03A8.633,8.633,0,0,1,0,0" transform="translate(53.297 18.438) rotate(59)" fill="none" stroke="#2988e6" stroke-width="2"/>
    </g>
  </g>
</svg>
