<?xml version="1.0" standalone="no"?><!DOCTYPE svg PUBLIC "-//W3C//DTD SVG 1.1//EN" "http://www.w3.org/Graphics/SVG/1.1/DTD/svg11.dtd"><svg t="1716429334413" class="icon" viewBox="0 0 1024 1024" version="1.1" xmlns="http://www.w3.org/2000/svg" p-id="2006" width="256" height="256" xmlns:xlink="http://www.w3.org/1999/xlink"><path d="M746.666667 699.733333L682.666667 640l-59.733334 59.733333-42.666666-38.4L640 597.333333l-59.733333-64 42.666666-38.4L682.666667 554.666667l64-59.733334 38.4 38.4L725.333333 597.333333l59.733334 64zM584.533333 789.333333h81.066667v81.066667h-81.066667zM733.866667 789.333333h81.066666v81.066667h-81.066666zM960 780.8h-89.6v89.6c51.2 0 89.6-38.4 89.6-89.6zM870.4 494.933333h89.6v81.066667h-89.6zM870.4 644.266667h89.6V725.333333h-89.6z" fill="#cccccc" p-id="2007"></path><path d="M546.133333 870.4v-85.333333H166.4V345.6h704v110.933333h89.6V345.6c0-46.933333-38.4-89.6-89.6-89.6h-349.866667l-89.6-85.333333H166.4c-46.933333 0-85.333333 38.4-85.333333 89.6v529.066666c0 46.933333 38.4 89.6 89.6 89.6l375.466666-8.533333z" fill="#cccccc" p-id="2008"></path></svg>