<svg id="组_22160" data-name="组 22160" xmlns="http://www.w3.org/2000/svg" width="20" height="20" viewBox="0 0 20 20">
  <path id="路径_23492" data-name="路径 23492" d="M.255,8.759l7.059,7.109a.862.862,0,0,0,1.225,0,.877.877,0,0,0,0-1.234L2.092,8.142,8.572,1.617a.877.877,0,0,0,0-1.234.862.862,0,0,0-1.226,0L.255,7.525a.877.877,0,0,0,0,1.234Zm16.234,7.108a.862.862,0,0,0,1.225,0,.877.877,0,0,0,0-1.234L11.269,8.142l6.478-6.525a.877.877,0,0,0,0-1.234.862.862,0,0,0-1.225,0L9.43,7.526a.877.877,0,0,0,0,1.234Zm0,0" transform="translate(0.999 1.873)" fill="#999"/>
  <rect id="矩形_23108" data-name="矩形 23108" width="20" height="20" fill="none"/>
</svg>
