<svg xmlns="http://www.w3.org/2000/svg" width="20" height="20" viewBox="0 0 20 20">
  <g id="组_22160" data-name="组 22160" transform="translate(-1806 -293)">
    <path id="路径_23492" data-name="路径 23492" d="M17.747,8.759l-7.059,7.109a.862.862,0,0,1-1.225,0,.877.877,0,0,1,0-1.234l6.446-6.492L9.43,1.617a.877.877,0,0,1,0-1.234.862.862,0,0,1,1.226,0l7.091,7.142a.877.877,0,0,1,0,1.234ZM1.513,15.867a.862.862,0,0,1-1.225,0,.877.877,0,0,1,0-1.234L6.733,8.142.255,1.617a.877.877,0,0,1,0-1.234.862.862,0,0,1,1.225,0L8.572,7.526a.877.877,0,0,1,0,1.234Zm0,0" transform="translate(1806.999 294.873)" fill="#999"/>
    <rect id="矩形_23108" data-name="矩形 23108" width="20" height="20" transform="translate(1806 293)" fill="none"/>
  </g>
</svg>
